<svg xmlns="http://www.w3.org/2000/svg" viewBox="0 0 380 880" width="380" height="880">
<g transform="translate(190, 220) scale(3.0)" fill="none" stroke="#004691" stroke-linecap="round" stroke-linejoin="round">
  <polygon points="0,-28 24.2,-14 24.2,14 0,28 -24.2,14 -24.2,-14" stroke-width="1.5"/>
  <line x1="-12" y1="-21" x2="12" y2="0" stroke-width="1.3"/>
  <line x1="12" y1="-21" x2="-12" y2="0" stroke-width="1.3"/>
  <line x1="-12" y1="21" x2="12" y2="0" stroke-width="1.3"/>
  <line x1="12" y1="21" x2="-12" y2="0" stroke-width="1.3"/>
  <line x1="-17" y1="0" x2="17" y2="0" stroke-width="1.3"/>
  <polygon points="0,-10 8.7,-5 8.7,5 0,10 -8.7,5 -8.7,-5" stroke-width="1.2"/>
</g>
<g transform="translate(0, 660) scale(3.0)" fill="none" stroke="#004691" stroke-linecap="round" stroke-linejoin="round">
  <polygon points="0,-28 24.2,-14 24.2,14 0,28 -24.2,14 -24.2,-14" stroke-width="1.5"/>
  <line x1="-12" y1="-21" x2="12" y2="0" stroke-width="1.3"/>
  <line x1="12" y1="-21" x2="-12" y2="0" stroke-width="1.3"/>
  <line x1="-12" y1="21" x2="12" y2="0" stroke-width="1.3"/>
  <line x1="12" y1="21" x2="-12" y2="0" stroke-width="1.3"/>
  <line x1="-17" y1="0" x2="17" y2="0" stroke-width="1.3"/>
  <polygon points="0,-10 8.7,-5 8.7,5 0,10 -8.7,5 -8.7,-5" stroke-width="1.2"/>
</g>
</svg>